<svg t="1697528919890" class="icon" viewBox="0 0 1024 1024" version="1.1" xmlns="http://www.w3.org/2000/svg" p-id="17817" width="200" height="200"><path d="M954.048 943.488c0 19.456-16.896 35.2-37.696 35.2H237.888c-20.8 0-37.696-15.744-37.696-35.2V133.568c0-19.456 16.896-35.2 37.696-35.2h445.888l270.208 269.696v575.424z" opacity=".1" p-id="17818"></path><path d="M666.88 0H165.568c-38.784 0-70.336 30.336-70.336 67.584v248.768h-12.352a38.464 38.464 0 0 0-39.36 37.568v272.64c0 20.736 17.6 37.568 39.36 37.568h12.352v292.224c0 37.248 31.552 67.648 70.336 67.648H910.08c38.784 0 70.336-30.336 70.336-67.648V312.896L666.88 0zM153.216 586.816l78.08-200.576h44.416l83.264 207.936h-45.696l-18.112-47.232H212.032l-17.152 47.232h-41.664v-7.36z m769.28 369.536c0 5.248-5.632 9.664-12.352 9.664H165.568c-6.72 0-12.352-4.416-12.352-9.664v-292.224h532.992c21.76 0 39.36-16.832 39.36-37.568V353.92a38.464 38.464 0 0 0-39.36-37.568H153.216V67.584c0-5.248 5.632-9.664 12.352-9.664h477.312l279.552 278.976v619.456zM381.248 594.176V386.304H448.64c25.536 0 42.176 1.024 49.92 3.136a54.848 54.848 0 0 1 29.952 20.352c8.064 10.432 12.032 23.936 12.032 40.512 0 12.736-2.304 23.488-6.976 32.192a56.128 56.128 0 0 1-17.664 20.48 60.544 60.544 0 0 1-21.76 9.856 239.168 239.168 0 0 1-43.52 3.008h-27.392v78.4h-41.984z m192.448 0V386.304h41.984v207.936h-41.984z" p-id="17819"></path><path d="M479.36 477.184a27.584 27.584 0 0 0 17.92-26.368 27.072 27.072 0 0 0-6.656-18.752 29.824 29.824 0 0 0-16.896-9.216 210.24 210.24 0 0 0-30.208-1.408h-20.288v59.008h22.976c16.512 0 27.584-1.088 33.152-3.264zM253.056 434.752l-28.096 77.184h56.704z" p-id="17820"></path></svg>