<svg t="1697528854677" class="icon" viewBox="0 0 1024 1024" version="1.1" xmlns="http://www.w3.org/2000/svg" p-id="17666" width="200" height="200"><path d="M920.19 63.33H103.33c-22.09 0-40 17.91-40 40v816.85c0 22.09 17.91 40 40 40h816.85c22.09 0 40-17.91 40-40V103.33c0.01-22.09-17.9-40-39.99-40zM912 872c0 22.09-17.91 40-40 40H152c-22.09 0-40-17.91-40-40V152c0-22.09 17.91-40 40-40h720c22.09 0 40 17.91 40 40v720z" p-id="17667"></path><path d="M319.77 355.73h54.27l120.38 312.55h-51.21l-29.33-80.54H279.5l-29.33 80.54H199.4l120.37-312.55z m-25.83 192.6h105.5l-51.63-141.38h-1.77l-52.1 141.38z m214.12-192.6h129.57c74.42 0 111.63 31.52 111.63 94.98 0 63.92-37.65 95.87-112.5 95.87h-80.99v121.7h-47.73V355.73h0.02z m47.71 40.71v109.43h77.91c23.64 0 40.71-4.37 51.66-13.13 10.5-8.76 16.19-22.77 16.19-42.03s-5.69-33.27-16.62-41.15c-10.95-8.76-28.02-13.13-51.23-13.13H555.77z m221.55-40.71h47.28v312.55h-47.28V355.73z" p-id="17668"></path></svg>