<svg t="1697525854263" class="icon" viewBox="0 0 1024 1024" version="1.1" xmlns="http://www.w3.org/2000/svg" p-id="44419" width="200" height="200"><path d="M914.368 673.664h-519.68c-25.152 0-45.568-22.016-45.568-48.896 0-26.88 20.416-48.896 45.568-48.896h519.68c25.216 0 45.632 22.016 45.632 48.896 0 26.88-20.48 48.896-45.632 48.896z m0-228.096h-519.68c-25.152 0-45.568-21.952-45.568-48.896 0-26.88 20.416-48.896 45.568-48.896h519.68c25.216 0 45.632 22.016 45.632 48.896 0 26.88-20.48 48.896-45.632 48.896z m-3.264-219.904H115.328c-26.88 0-50.56-20.352-51.328-47.168A48.896 48.896 0 0 1 112.896 128h795.776c26.88 0 50.56 20.416 51.328 47.168a48.896 48.896 0 0 1-48.896 50.56z m-619.776 447.232V348.672L64 510.784l227.328 162.112c0 0.768 0 0.768 0 0z m-178.432 122.944h795.776c26.88 0 50.56 20.48 51.328 47.232a48.896 48.896 0 0 1-48.896 50.496H115.328c-26.88 0-50.56-20.416-51.328-47.232a48.896 48.896 0 0 1 48.896-50.496z" fill="#2c2c2c" p-id="44420"></path></svg>