<svg t="1697529056463" class="icon" viewBox="0 0 1193 1024" version="1.1" xmlns="http://www.w3.org/2000/svg" p-id="20940" width="200" height="200">
<path d="M1165.019028 190.922382a102.610267 102.610267 0 0 0-73.873785-31.680219H817.658042A203.39822 203.39822 0 0 0 622.810678 0H102.750445A103.591513 103.591513 0 0 0 0 103.591513v816.676796a104.292402 104.292402 0 0 0 102.750445 103.731691h988.394798a103.731691 103.731691 0 0 0 102.750445-103.731691V263.955099a101.348665 101.348665 0 0 0-28.87666-73.032717zM731.308419 161.204654H81.583573V106.53525a22.00794 22.00794 0 0 1 21.166872-21.166872h518.658453a116.768241 116.768241 0 0 1 109.478987 75.836276z m382.826009 117.048597v621.96961h-1.822313v5.747296a36.866804 36.866804 0 0 1-34.623956 36.44627H118.029843A35.465024 35.465024 0 0 1 84.106776 905.970157V242.788227h996.52512a34.904312 34.904312 0 0 1 33.502532 35.465024z"  p-id="20941"></path>
<path d="M434.551677 702.992471l-136.1128-119.5718 128.823546-110.600411a29.857906 29.857906 0 0 0-3.644627-35.04449 30.278439 30.278439 0 0 0-34.623956-7.149076l-154.195756 132.468173a29.57755 29.57755 0 0 0-9.812458 21.867761 28.035592 28.035592 0 0 0 9.812458 21.447228l161.204654 140.177961a28.035592 28.035592 0 0 0 18.783847 7.289253A29.998084 29.998084 0 0 0 434.551677 702.992471zM972.835044 564.21629l-154.195756-132.327994a28.035592 28.035592 0 1 0-37.287337 43.595345L911.156742 586.084052l-136.112799 119.5718a29.998084 29.998084 0 0 0-2.663382 40.371253 28.035592 28.035592 0 0 0 21.587406 9.812457 30.138261 30.138261 0 0 0 18.783847-7.149076l161.064476-140.17796a28.035592 28.035592 0 0 0 9.952635-21.447228 29.857906 29.857906 0 0 0-10.232991-23.40972z" p-id="20942"></path>
<path d="M474.362218 583.420671m-29.297194 0a29.297194 29.297194 0 1 0 58.594387 0 29.297194 29.297194 0 1 0-58.594387 0Z" fill="#4D4D4D" p-id="20943"></path><path d="M601.503628 583.420671m-29.297194 0a29.297194 29.297194 0 1 0 58.594387 0 29.297194 29.297194 0 1 0-58.594387 0Z" fill="#4D4D4D" p-id="20944"></path><path d="M728.645038 583.420671m-29.297194 0a29.297194 29.297194 0 1 0 58.594387 0 29.297194 29.297194 0 1 0-58.594387 0Z"  p-id="20945"></path>
</svg>